<svg width="11" height="6" viewBox="0 0 11 6" fill="none" xmlns="http://www.w3.org/2000/svg">
<path d="M5.00212 5.00209C4.83519 5.00242 4.67341 4.94428 4.54487 4.83777L0.258101 1.26548C0.112196 1.14421 0.0204416 0.969949 0.00302324 0.781027C-0.0143951 0.592106 0.0439491 0.404003 0.165221 0.258099C0.286492 0.112195 0.460757 0.0204415 0.64968 0.00302324C0.838602 -0.014395 1.02671 0.0439485 1.17261 0.165219L5.00212 3.36599L8.83163 0.279533C8.90471 0.220186 8.9888 0.175867 9.07907 0.149124C9.16933 0.12238 9.26399 0.11374 9.3576 0.123699C9.45122 0.133658 9.54194 0.162019 9.62456 0.207154C9.70718 0.252289 9.78006 0.313308 9.83902 0.386701C9.90445 0.460163 9.95401 0.546345 9.98458 0.639849C10.0152 0.733352 10.0261 0.832162 10.0167 0.930088C10.0073 1.02801 9.97779 1.12295 9.93001 1.20894C9.88222 1.29492 9.81719 1.37012 9.739 1.42981L5.45223 4.88064C5.32 4.97031 5.16152 5.01308 5.00212 5.00209V5.00209Z" fill="#6F6E6E"/>
</svg>
