<svg width="15" height="10" viewBox="0 0 15 10" fill="none" xmlns="http://www.w3.org/2000/svg">
<path d="M0.833335 10H4.16667C4.62501 10 5.00001 9.62503 5.00001 9.16669C5.00001 8.70836 4.62501 8.33336 4.16667 8.33336H0.833335C0.375001 8.33336 0 8.70836 0 9.16669C0 9.62503 0.375001 10 0.833335 10ZM0 0.833336C0 1.29167 0.375001 1.66667 0.833335 1.66667H14.1667C14.625 1.66667 15 1.29167 15 0.833336C15 0.375001 14.625 0 14.1667 0H0.833335C0.375001 0 0 0.375001 0 0.833336ZM0.833335 5.83335H9.16668C9.62502 5.83335 10 5.45835 10 5.00002C10 4.54168 9.62502 4.16668 9.16668 4.16668H0.833335C0.375001 4.16668 0 4.54168 0 5.00002C0 5.45835 0.375001 5.83335 0.833335 5.83335Z" fill="black"/>
</svg>
